# xmcd
#
# Track frame offsets: 
#        150
#        22860
#        47368
#        72731
#        106977
#        132820
#
# Disc length: 2145 seconds
#
# Revision: 2
# Processed by: cddbd v1.5.2PL0 Copyright (c) Steve Scherf et al.
# Submitted via: ExactAudioCopy v0.99pb4
#
DISCID=47085f06
DTITLE=The Isley Brothers - Go All The Way [Japanese Paper Sleeve Edit
DTITLE=ion]
DYEAR=1980
DGENRE=Funk and R&B
TTITLE0=Go All The Way (Parts 1 and 2)
TTITLE1=Say You Will (Parts 1 and 2)
TTITLE2=Pass It On (Parts 1 and 2)
TTITLE3=Here We Go Again (Parts 1 and 2)
TTITLE4=Don't Say Goodnight (It's Time For Love) (Parts 1 and 2)
TTITLE5=The Belly Dancer (Parts 1 and 2)
EXTD=
EXTT0=
EXTT1=
EXTT2=
EXTT3=
EXTT4=
EXTT5=
PLAYORDER=
